<svg width="134" height="134" viewBox="0 0 134 134" fill="none" xmlns="http://www.w3.org/2000/svg">
  <!-- Arther Character: Sleeping Body Variant -->
  <!-- Eyes are half-closed lines, different face arrangement -->

  <g id="body">
    <path id="body-outline" d="M112.657 18.0416C98.0131 4.12377 76.9828 -2.17358 57.1425 0.66879C36.4521 3.26613 17.7288 16.9879 8.47642 35.7819C-4.46718 61.1917 -3.94028 91.5 19.5597 110C36.5597 119.5 62.5597 119 81.014 119C96.6075 117 112.584 114.683 121.448 101.5C130.02 89.4934 132.06 78 133.517 63.6421C133.104 46.4163 125.163 29.6806 112.657 18.0416ZM119.06 96C105.56 114.215 89.0306 114 66.0306 114C43.0306 112 18.3602 112.305 9.88496 90.13C3.47387 74.3254 3.98378 55.85 11.4148 40.4865C17.7045 26.8382 29.7253 16.4734 43.3975 10.7886C40.7505 18.2376 37.3506 25.7356 37.5934 33.8216C37.8363 36.762 38.3949 40.56 41.479 41.8342C47.5501 39.6779 50.5614 33.0621 52.9898 27.4998C54.2041 32.523 55.8554 37.9872 60.2509 41.0991C61.8779 42.3977 64.5006 42.9858 66.0306 41.2216C70.0132 37.3256 69.8432 31.1753 68.8233 26.1031C71.8831 29.5581 75.9871 33.5766 81.014 32.572C84.4867 31.2243 85.2881 27.1078 85.0939 23.7753C87.6194 24.3144 90.5578 25.172 92.8405 23.4568C95.9004 21.129 96.8232 17.0859 96.6532 13.386C106.901 19.1687 115.862 27.5243 121.448 38.0607C131.526 56.0706 128.992 78.2107 119.06 96Z" fill="currentColor"/>
  </g>

  <g id="face">
    <!-- Right eye (half-closed/sleepy line) -->
    <path id="eye-right" d="M97.5596 47C95.0098 48.0536 89.6953 48.4861 90.0596 51.5C90.4239 55.6655 93.0596 53.25 97.5596 52.5C100.56 52 100.56 50.3249 104.06 50C107.56 49.6752 107.56 50 110.787 49.6752C115.06 45.5 102.514 44.9172 97.5596 47Z" fill="currentColor"/>

    <!-- Left eye (half-closed/sleepy line) -->
    <path id="eye-left" d="M39.5597 57.5C33.9985 60.9305 25.9113 63.1921 31.0596 66.5C33.0509 67.5536 40.3597 64.2397 42.0596 62.5C44.8523 59.9762 45.0595 61 52.0598 60C54.5596 55 44.0037 55.4908 39.5597 57.5Z" fill="currentColor"/>

    <!-- Mouth (small circle/dot - sleeping) -->
    <path id="mouth" d="M70.306 61.7478C64.7449 65.1782 65.7406 74.0974 70.8889 77.4053C72.8802 78.4589 75.7457 78.6795 77.4456 76.9398C80.2383 74.4159 82.6668 70.765 82.084 66.8199C80.724 61.8948 74.7501 59.7385 70.306 61.7478Z" fill="currentColor"/>
  </g>

  <g id="details">
    <path d="M40.3133 111.815C40.3376 107.209 40.2648 102.014 37.2778 98.216C38.5406 102.7 39.342 107.258 40.3133 111.815Z" fill="currentColor"/>
    <path d="M31.6195 103.656C30.721 99.4902 29.1667 95.3981 26.4469 92.0902C27.1511 96.3293 29.0453 100.274 31.6195 103.656Z" fill="currentColor"/>
    <path d="M22.9985 97.4809C21.42 93.0949 20.9586 88.4637 20.8858 83.8326C18.7245 88.4147 19.6473 93.7565 22.9985 97.4809Z" fill="currentColor"/>
    <path d="M17.3402 93.0213C16.3446 87.3366 17.0488 81.5784 16.5146 75.8936C14.0376 81.2843 13.8919 87.9982 17.3402 93.0213Z" fill="currentColor"/>
  </g>
</svg>
