<svg width="134" height="134" viewBox="0 0 134 134" fill="none" xmlns="http://www.w3.org/2000/svg">
  <!-- Arther Character: Coffee Body Variant -->
  <!-- Wide-open surprised eyes, different expression -->

  <g id="body">
    <path id="body-outline" d="M112.657 18.0416C98.0131 4.12377 76.9828 -2.17358 57.1425 0.66879C36.4521 3.26613 17.7288 16.9879 8.47642 35.7819C-4.46718 61.1917 -3.94028 91.5 19.5597 110C36.5597 119.5 62.5597 119 81.014 119C96.6075 117 112.584 114.683 121.448 101.5C130.02 89.4934 132.06 78 133.517 63.6421C133.104 46.4163 125.163 29.6806 112.657 18.0416ZM119.06 96C105.56 114.215 89.0306 114 66.0306 114C43.0306 112 18.3602 112.305 9.88496 90.13C3.47387 74.3254 3.98378 55.85 11.4148 40.4865C17.7045 26.8382 29.7253 16.4734 43.3975 10.7886C40.7505 18.2376 37.3506 25.7356 37.5934 33.8216C37.8363 36.762 38.3949 40.56 41.479 41.8342C47.5501 39.6779 50.5614 33.0621 52.9898 27.4998C54.2041 32.523 55.8554 37.9872 60.2509 41.0991C61.8779 42.3977 64.5006 42.9858 66.0306 41.2216C70.0132 37.3256 69.8432 31.1753 68.8233 26.1031C71.8831 29.5581 75.9871 33.5766 81.014 32.572C84.4867 31.2243 85.2881 27.1078 85.0939 23.7753C87.6194 24.3144 90.5578 25.172 92.8405 23.4568C95.9004 21.129 96.8232 17.0859 96.6532 13.386C106.901 19.1687 115.862 27.5243 121.448 38.0607C131.526 56.0706 128.992 78.2107 119.06 96Z" fill="currentColor"/>
  </g>

  <g id="face">
    <!-- Right eye (wide open / surprised) -->
    <path id="eye-right" d="M89.8035 60.2848C92.751 56.8346 91.0262 51.7474 93.4859 48.079C94.5181 46.562 95.9257 45.1276 97.6941 44.5412C101.556 45.0093 103.433 48.7983 105.544 51.6007C106.263 51.4733 107.68 51.2455 108.399 51.1182C108.604 44.9095 104.462 38.4826 98.3412 37.0029C94.0002 36.1679 90.0851 39.2549 87.9822 42.8352C85.5596 46.8446 83.546 51.6969 84.4024 56.4348C85.6657 58.1708 87.3753 60.8689 89.8035 60.2848Z" fill="currentColor"/>

    <!-- Mouth -->
    <path id="mouth" d="M71.306 62.7478C65.7449 66.1782 66.7406 75.0974 71.8889 78.4053C73.8802 79.4589 76.7457 79.6795 78.4456 77.9398C81.2383 75.4159 83.6668 71.765 83.084 67.8199C81.724 62.8948 75.75 60.7385 71.306 62.7478Z" fill="currentColor"/>

    <!-- Left eye (wide open / surprised) -->
    <path id="eye-left" d="M37.7195 74.2421C40.6911 70.8127 39.0021 65.7134 41.4874 62.0624C42.5303 60.5527 43.9479 59.1282 45.7204 58.5543C49.5785 59.0494 51.4288 62.8515 53.521 65.6686C54.2408 65.5463 55.6589 65.3285 56.3787 65.2062C56.6276 58.9991 52.5307 52.5433 46.4204 51.0206C42.0854 50.1552 38.1486 53.2146 36.0207 56.7801C33.57 60.7724 31.5224 65.6104 32.3455 70.3542C33.5966 72.0991 35.2873 74.8091 37.7195 74.2421Z" fill="currentColor"/>
  </g>

  <g id="details">
    <path d="M40.3133 111.815C40.3376 107.209 40.2648 102.014 37.2778 98.216C38.5406 102.7 39.3419 107.258 40.3133 111.815Z" fill="currentColor"/>
    <path d="M31.6194 103.656C30.7209 99.4902 29.1667 95.3981 26.4468 92.0902C27.1511 96.3293 29.0453 100.274 31.6194 103.656Z" fill="currentColor"/>
    <path d="M22.9985 97.4809C21.42 93.0949 20.9586 88.4637 20.8858 83.8326C18.7245 88.4147 19.6473 93.7565 22.9985 97.4809Z" fill="currentColor"/>
    <path d="M17.3402 93.0213C16.3445 87.3366 17.0488 81.5784 16.5145 75.8936C14.0375 81.2843 13.8918 87.9982 17.3402 93.0213Z" fill="currentColor"/>
  </g>
</svg>
