<svg width="134" height="134" viewBox="0 0 134 134" fill="none" xmlns="http://www.w3.org/2000/svg">
  <!-- Arther Character: Standard Body -->
  <!-- Animatable layer groups for CSS targeting -->

  <g id="body">
    <!-- Main body outline with hair cutout -->
    <path id="body-outline" d="M112.657 18.0416C98.0131 4.12377 76.9828 -2.17358 57.1425 0.66879C36.4521 3.26613 17.7288 16.9879 8.47642 35.7819C-4.46718 61.1917 -3.94028 91.5 19.5597 110C36.5597 119.5 62.5597 119 81.014 119C96.6075 117 112.584 114.683 121.448 101.5C130.02 89.4934 132.06 78 133.517 63.6421C133.104 46.4163 125.163 29.6806 112.657 18.0416ZM119.06 96C105.56 114.215 89.0306 114 66.0306 114C43.0306 112 18.3602 112.305 9.88496 90.13C3.47387 74.3254 3.98378 55.85 11.4148 40.4865C17.7045 26.8382 29.7253 16.4734 43.3975 10.7886C40.7505 18.2376 37.3506 25.7356 37.5934 33.8216C37.8363 36.762 38.3949 40.56 41.479 41.8342C47.5501 39.6779 50.5614 33.0621 52.9898 27.4998C54.2041 32.523 55.8554 37.9872 60.2509 41.0991C61.8779 42.3977 64.5006 42.9858 66.0306 41.2216C70.0132 37.3256 69.8432 31.1753 68.8233 26.1031C71.8831 29.5581 75.9871 33.5766 81.014 32.572C84.4867 31.2243 85.2881 27.1078 85.0939 23.7753C87.6194 24.3144 90.5578 25.172 92.8405 23.4568C95.9004 21.129 96.8232 17.0859 96.6532 13.386C106.901 19.1687 115.862 27.5243 121.448 38.0607C131.526 56.0706 128.992 78.2107 119.06 96Z" fill="currentColor"/>
  </g>

  <g id="face">
    <!-- Right eye -->
    <path id="eye-right" d="M97.2603 44.7991C94.7104 45.8527 92.1849 48.303 92.5491 51.3169C92.9134 55.4824 95.1719 60.0155 99.3488 61.3877C102.117 62.3188 105.056 60.7751 106.853 58.6679C108.965 56.1685 110.932 53.1056 110.787 49.6752C108.504 44.603 102.214 42.7163 97.2603 44.7991Z" fill="currentColor"/>

    <!-- Mouth -->
    <path id="mouth" d="M81.4512 54.9189C78.1485 58.0308 79.3141 63.2745 76.4728 66.6559C75.2829 68.0526 73.7287 69.3268 71.9073 69.7188C68.119 68.8367 66.6619 64.8672 64.8649 61.8533C64.1363 61.9023 62.7035 61.9758 61.975 62.0248C61.1008 68.1751 64.5249 75.0115 70.4503 77.1433C74.6758 78.4419 78.9013 75.7956 81.3783 72.4632C84.2196 68.7387 86.7451 64.1321 86.4052 59.3294C85.3366 57.4672 83.9282 54.6003 81.4512 54.9189Z" fill="currentColor"/>

    <!-- Left eye -->
    <path id="eye-left" d="M39.0505 58.6678C33.4894 62.0983 34.4851 71.0175 39.6334 74.3254C41.6247 75.379 44.4903 75.5996 46.1902 73.8599C48.9829 71.336 51.4113 67.685 50.8285 63.74C49.4686 58.8149 43.4946 56.6586 39.0505 58.6678Z" fill="currentColor"/>
  </g>

  <g id="details">
    <!-- Bottom body detail strands -->
    <path d="M40.3133 111.815C40.3376 107.209 40.2648 102.014 37.2778 98.216C38.5406 102.7 39.342 107.258 40.3133 111.815Z" fill="currentColor"/>
    <path d="M31.6195 103.656C30.721 99.4902 29.1667 95.3981 26.4469 92.0902C27.1511 96.3293 29.0453 100.274 31.6195 103.656Z" fill="currentColor"/>
    <path d="M22.9985 97.4809C21.42 93.0949 20.9586 88.4637 20.8858 83.8326C18.7245 88.4147 19.6473 93.7565 22.9985 97.4809Z" fill="currentColor"/>
    <path d="M17.3402 93.0214C16.3446 87.3366 17.0488 81.5784 16.5146 75.8936C14.0376 81.2844 13.8919 87.9982 17.3402 93.0214Z" fill="currentColor"/>
  </g>
</svg>
