<svg width="56" height="76" viewBox="0 0 56 76" fill="none" xmlns="http://www.w3.org/2000/svg">
  <!-- Status Icon: Magnifying Glass (Searching state) -->
  <g id="icon-magnifying-glass">
    <path d="M7.78948 7.44147C6.62761 8.75009 5.70706 10.2649 4.55414 11.5824C0.130108 16.9066 -1.28201 24.6418 1.25622 31.1221C2.26615 34.4654 3.86595 37.6473 6.27905 40.1839C10.1132 43.9664 15.4578 46.0548 20.8113 46.0727C24.0645 46.3326 27.1926 45.1405 30.1241 43.8498C30.9195 45.9831 31.5452 48.1701 32.1887 50.3571C33.8689 55.8963 35.8619 61.3459 37.6494 66.8493C38.5878 69.7175 39.6425 72.6574 41.707 74.9072C42.3952 75.678 43.4498 76.2337 44.4955 75.9021C47.4449 75.0685 49.7686 72.9622 52.2621 71.2861C54.5054 69.8161 56.1141 67.1809 55.855 64.4472C54.5322 59.7863 51.422 55.9949 48.9642 51.9167C47.3823 49.5504 45.5412 47.3634 44.0844 44.9075C42.5114 42.1558 40.0357 40.1032 38.2393 37.5129C43.0119 32.9058 45.7915 26.1834 45.4518 19.5238C45.3178 14.3072 42.994 9.18928 39.1956 5.63091C35.433 2.18905 30.428 0.0827109 25.3158 0.0110056C18.7825 -0.195147 12.142 2.50277 7.78948 7.44147ZM53.2006 68.3462C51.8957 69.7713 50.1976 70.7035 48.6336 71.779C47.0338 72.8457 45.3178 73.984 43.3247 73.975C44.0844 71.8956 45.5323 70.1478 47.1678 68.7047C49.3217 66.93 51.994 65.9082 54.6931 65.2808C54.3445 66.3653 53.9871 67.4947 53.2006 68.3462ZM43.3604 22.7416C42.851 27.6444 40.4826 32.2874 36.8898 35.6396C32.2959 40.1301 25.4945 42.3351 19.1758 40.9458C12.5531 39.7447 6.88677 34.7343 4.63454 28.4063C2.46275 22.4548 3.73189 15.4366 7.61967 10.48C10.7925 6.32107 15.5204 3.40804 20.6415 2.41313C27.0765 1.14933 34.1549 3.16604 38.6862 7.99718C42.422 11.8424 44.0039 17.4712 43.3604 22.7416Z" fill="currentColor"/>
    <path d="M21.3296 5.00345C16.4855 5.76531 11.999 8.76798 9.64845 13.1151C6.58291 18.2062 6.56502 24.9554 9.68418 30.0196C12.6425 35.3886 18.8897 38.7049 24.994 38.0237C30.0973 37.6025 34.8877 34.5819 37.5154 30.172C40.9473 24.5521 40.9741 16.8707 37.1936 11.4121C33.7527 6.41066 27.2462 3.93683 21.3296 5.00345ZM38.1678 25.1078C37.7745 26.9632 36.9523 28.702 36.1658 30.423C32.9394 35.0211 26.9513 37.5935 21.4101 36.4552C13.6345 35.1286 7.3426 27.2321 8.42403 19.2728C10.5422 13.5902 16.0119 9.51192 21.9106 8.49908C25.8341 7.80892 30.1062 8.58871 33.2969 11.0715C37.4617 14.2714 39.2939 20.0167 38.1678 25.1078Z" fill="currentColor"/>
    <path d="M30.4011 16.0013C29.4985 14.6927 28.8192 13.1241 27.4429 12.2278C26.0933 11.3763 24.3863 11.3315 22.8758 11.69C20.57 12.3622 18.4608 13.8053 17.0129 15.7234C16.1281 16.6914 17.1112 18.0449 18.2105 18.2421C20.7845 18.8426 23.5104 18.2062 26.0576 19.0039C27.3177 19.3804 28.3455 20.4649 28.5421 21.7915C28.9175 23.2346 28.56 25.081 29.8828 26.1117C30.562 26.6675 31.5362 26.2103 31.9473 25.5471C32.7427 24.3281 32.707 22.7864 32.5908 21.3971C32.4568 19.4073 31.3664 17.6774 30.4011 16.0013ZM30.4101 25.4216C29.3912 24.6149 29.5521 23.1808 29.284 22.0425C29.0784 20.5994 28.2562 19.1832 26.8977 18.5558C23.9573 17.0589 20.4002 18.3676 17.4955 16.8169C19.0685 14.8092 21.1688 13.0972 23.6713 12.4698C25.0745 12.1202 26.5313 12.4519 27.7914 13.0883C28.7567 15.9834 31.2413 18.251 31.5362 21.3971C31.6077 22.7685 31.8669 24.6507 30.4101 25.4216Z" fill="currentColor"/>
  </g>
</svg>
