<svg width="93" height="83" viewBox="0 0 93 83" fill="none" xmlns="http://www.w3.org/2000/svg">
  <!-- Status Icon: Heart (Love/Appreciation state) -->
  <g id="icon-heart">
    <path d="M83.5396 32.916C82.9754 30.1795 80.8764 28.1791 79.3417 25.9584C77.3088 23.0851 74.2316 21.2106 71.2509 19.45C67.2796 17.0675 62.8003 15.8245 58.4795 14.2853C49.8537 10.7948 40.4717 9.6349 31.2169 9.57576C27.0021 9.56273 22.5008 10.3084 19.2219 13.1567C15.0469 16.7348 13.0952 22.066 10.9896 26.9831C8.97446 32.6464 7.11849 38.5866 7.42399 44.6776C7.6182 48.3115 10.1109 51.4049 13.202 53.1608C18.8915 56.7032 25.9469 55.9316 32.0016 58.4663C32.4584 61.4873 32.1863 64.7129 33.5637 67.5553C34.1273 68.6506 35.2392 69.9375 36.6392 69.4756C39.3372 68.699 41.1971 66.4447 42.8276 64.305C47.517 67.8257 53.3941 68.9001 58.866 70.5955C62.0689 71.4803 65.6585 72.6968 68.8469 71.1147C73.5546 68.837 76.2288 64.0573 79.0854 59.9038C82.4526 55.0144 83.4867 49.0733 84.4117 43.3388C84.9831 39.8548 84.2334 36.3361 83.5396 32.916ZM77.2057 57.816C74.9802 61.3255 72.8886 65.0558 69.7898 67.8793C67.5686 69.8578 64.3678 69.7478 61.6946 68.9393C57.1899 67.6402 52.6238 66.5038 48.2949 64.6983C46.0566 63.8063 44.4079 61.6819 41.9308 61.381C40.2073 63.3152 38.7905 65.6285 36.3924 66.8435C34.3886 63.811 35.363 59.9992 34.0321 56.7873C31.7166 54.3336 28.1157 53.763 24.9431 53.0445C20.5378 52.2628 15.7403 51.4105 12.5111 48.0079C10.6984 46.4408 10.2764 43.9438 10.3414 41.6772C10.4882 36.2369 12.0883 30.9741 13.9513 25.919C15.8435 21.6489 17.526 16.8662 21.5315 14.1066C24.6101 12.1579 28.4058 11.9661 31.9601 11.9618C41.2249 12.1176 50.5641 13.4317 59.2462 16.7731C61.7153 17.7522 63.7944 19.4355 66.0897 20.7514C70.1087 23.09 74.2496 25.5985 76.96 29.4708C78.1611 31.1785 79.7922 32.6924 80.2386 34.7961C80.8756 37.6685 81.662 40.5973 81.2715 43.5614C80.5669 48.4658 79.9062 53.5417 77.2057 57.816Z" fill="currentColor"/>
    <path d="M58.4278 28.6323C55.6321 28.9695 53.416 30.9345 51.5583 32.8954C51.1167 29.9576 50.1252 26.8739 47.7919 24.8779C45.7215 23.0896 42.6753 22.8988 40.1995 23.8677C37.3277 24.9812 34.6395 27.0464 33.4967 29.9896C32.4252 32.9906 32.4551 36.3612 33.5317 39.3841C35.0133 43.9223 38.23 47.6453 41.6343 50.9128C41.7417 51.6964 41.8388 52.5071 42.0616 53.2724C45.2787 52.8466 48.2427 51.3655 51.0693 49.8789C54.7422 47.9998 57.4866 44.8412 60.4326 42.0528C62.7342 39.6558 65.4171 36.7835 65.1192 33.2188C64.7968 30.0473 61.3219 28.3632 58.4278 28.6323Z" fill="currentColor"/>
  </g>
</svg>
