<svg width="152" height="52" viewBox="0 0 152 52" fill="none" xmlns="http://www.w3.org/2000/svg">
  <!-- Status Icon: Banner (Celebration state) -->
  <g id="icon-banner">
    <path d="M13.9042 24.8904C13.4384 24.0952 13.1057 23.4877 12.7509 22.9134C11.3093 20.6162 9.77897 18.3741 8.41499 16.0216C7.50567 14.4422 6.77378 12.7414 6.01971 11.0736C5.69812 10.3668 5.6205 9.56053 6.16388 8.89785C6.72943 8.21309 7.47239 8.33458 8.19319 8.5886C12.9394 10.2784 17.9407 10.6871 22.7977 11.7694C23.3189 11.8799 23.8734 11.8357 24.6275 11.8688C24.8049 11.0295 24.9934 10.2453 25.1265 9.4611C25.4924 7.38472 25.7807 5.29731 26.2021 3.23198C26.7566 0.492921 27.3 0.360382 29.9836 0.846343C32.8557 1.36544 35.6723 2.18273 38.5334 2.75705C43.0023 3.65166 47.4824 4.54627 51.9735 5.27521C55.6884 5.88267 59.4366 6.37967 63.1848 6.71101C68.6961 7.19697 74.2296 7.41788 79.7632 6.96505C80.7279 6.88774 81.7149 6.94295 82.6796 6.8546C87.4037 6.46804 92.1388 6.21402 96.8295 5.61761C102.186 4.93285 107.542 4.0824 112.765 2.53616C115.459 1.74095 118.143 0.945747 120.86 0.22785C123.244 -0.401691 124.242 0.2389 125.318 2.58035C127.203 6.67789 127.979 11.0626 128.556 15.5246C128.645 16.1983 128.811 16.861 128.955 17.5899C130.973 17.6893 132.681 17.0046 134.433 16.5186C136.95 15.8118 139.457 15.0386 141.996 14.387C142.872 14.1661 143.804 14.133 144.713 14.1661C146.509 14.2213 147.219 15.37 146.531 17.1482C146.166 18.0869 145.622 18.9595 145.09 19.7988C143.449 22.3501 141.763 24.8573 140.122 27.3975C139.789 27.9166 139.523 28.4799 139.135 29.1978C139.889 29.6285 140.488 30.0151 141.131 30.3354C144.092 31.8154 147.186 33.0303 149.869 35.0845C150.646 35.681 151.655 36.1117 151.533 37.3818C151.422 38.5304 150.468 38.8949 149.637 39.2373C142.451 42.1973 135.265 45.1572 128.046 48.0398C125.096 49.2216 122.08 50.2156 119.086 51.2759C118.343 51.541 117.577 51.784 116.801 51.9054C114.517 52.2589 113.375 51.6625 112.443 49.4204C111.833 47.9625 111.445 46.4053 110.99 44.8701C110.724 43.9534 110.558 43.0035 110.292 42.0868C109.926 40.8167 109.726 40.64 108.473 40.8056C106.965 40.9934 105.468 41.2585 103.982 41.5677C100.145 42.3519 96.2529 42.4844 92.3605 42.4182C87.071 42.3188 81.7703 42.2967 76.5029 41.8549C68.3856 41.1812 60.357 39.7233 52.4947 37.415C49.4563 36.5204 46.4178 35.6036 43.3683 34.7311C41.7603 34.2672 41.6051 34.4661 41.0284 36.1338C40.3187 38.166 39.5314 40.1761 38.6443 42.142C37.8902 43.8098 36.5595 44.605 34.763 44.2847C33.0331 43.9754 31.281 43.7214 29.5622 43.3459C22.7866 41.8659 16.0222 40.3528 9.24669 38.8397C6.92903 38.3206 4.62246 37.7794 2.30481 37.2493C2.07193 37.194 1.83907 37.1057 1.6062 37.0173C-0.290064 36.2553 -0.567302 34.6869 1.09608 33.4499C3.08106 31.97 5.16583 30.6446 7.22843 29.2751C8.88073 28.1817 10.5552 27.1545 12.2186 26.0832C12.7287 25.7519 13.2055 25.3763 13.9263 24.8573L13.9042 24.8904ZM28.9744 2.33737C28.6861 3.2872 28.3534 4.09346 28.1871 4.94389C27.0227 10.6098 26.7899 16.364 26.7677 22.1292C26.7677 22.2618 26.7788 22.3833 26.7899 22.5158C26.8786 24.4155 27.6992 25.796 29.3626 26.5913C30.6378 27.1987 31.902 27.8062 33.1884 28.3915C38.234 30.6778 43.579 31.9479 48.8131 33.5825C61.0002 37.3929 73.4312 39.4582 86.1395 39.5907C87.6033 39.6018 89.056 39.6901 90.5197 39.646C93.7356 39.5686 96.9515 39.5686 100.156 39.2925C102.929 39.0495 105.679 38.4421 108.44 38.0666C112.787 37.4702 117.067 36.6087 121.259 35.2723C122.712 34.8084 124.142 34.2562 125.562 33.704C126.438 33.3616 126.959 32.721 126.926 31.6718C126.87 29.6285 126.97 27.5632 126.77 25.531C126.438 22.1624 126.016 18.7938 125.462 15.4583C124.93 12.1891 124.53 8.87576 123.266 5.77223C122.102 2.91169 122.146 2.85646 119.318 3.72898C113.962 5.38567 108.628 7.17489 103.062 7.89279C97.5281 8.61069 91.9946 9.68201 86.4389 9.92499C74.5956 10.4441 62.7634 10.3337 51.0088 8.14683C44.1778 6.8767 37.4355 5.33045 30.8596 2.95586C30.2941 2.75706 29.7285 2.59139 28.9634 2.33737H28.9744ZM5.64268 34.1899C6.13061 34.5434 6.30803 34.7642 6.51872 34.8084C14.2368 36.4982 21.966 38.177 29.6952 39.8447C29.9059 39.8889 30.1499 39.7785 30.6046 39.6901C30.2941 39.0827 30.0834 38.5746 29.795 38.1218C27.6326 34.7311 25.8916 31.1748 25.5257 27.022C25.5146 26.8343 25.4702 26.6355 25.4037 26.4698C24.1173 23.3442 24.3613 20.0749 24.6053 16.8168C24.7605 14.8067 24.6275 14.5858 22.7756 14.387C18.9054 13.9673 15.0685 13.3709 11.3315 12.156C10.7992 11.9793 10.2225 11.9462 9.21342 11.7694C9.82333 12.907 10.156 13.636 10.5774 14.2986C12.4626 17.2917 14.3921 20.2517 16.2662 23.2448C17.3307 24.9567 17.1533 26.1605 15.6563 27.4196C14.9466 28.016 14.1703 28.5351 13.3941 29.0432C11.4756 30.2912 9.535 31.495 7.62765 32.732C7.01774 33.1296 6.45218 33.5935 5.63158 34.1899H5.64268ZM143.36 17.4132C143.282 17.2807 143.205 17.1481 143.127 17.0266C142.207 17.2034 141.264 17.3028 140.366 17.5568C137.083 18.4845 133.812 19.4565 130.53 20.4173C129.432 20.7376 129.354 20.9475 129.399 22.1955C129.498 25.3984 129.587 28.5903 129.598 31.7932C129.598 33.0855 129.332 34.3114 128.256 35.2171C127.813 35.5926 127.591 36.2553 127.292 36.8075C126.515 38.177 125.85 39.646 124.952 40.9161C123.61 42.8157 122.091 44.5718 120.66 46.4052C120.294 46.8691 119.951 47.344 119.485 47.9515C121.98 48.0177 145.722 38.7734 147.596 37.0284C146.798 36.4983 146.088 35.9239 145.301 35.5263C142.883 34.3114 140.421 33.207 138.015 31.981C135.853 30.8766 135.52 29.4297 136.906 27.3313C138.714 24.5922 140.554 21.8863 142.373 19.1582C142.739 18.606 143.038 18.0096 143.36 17.4353V17.4132ZM112.321 40.408C112.754 43.5668 113.985 47.1121 115.06 48.2497C118.276 45.2345 121.359 42.0868 123.721 38.2433C123.821 38.0776 123.765 37.8015 123.787 37.426C119.884 38.431 116.147 39.403 112.31 40.397L112.321 40.408ZM28.8303 29.3524C28.8857 32.5332 33.2992 39.2815 36.0605 40.4191C37.1029 38.2543 38.1452 36.0565 39.2985 33.6598C35.7943 32.2129 32.3567 30.7992 28.8303 29.3524Z" fill="currentColor"/>
  </g>
</svg>
