<svg width="72" height="76" viewBox="0 0 72 76" fill="none" xmlns="http://www.w3.org/2000/svg">
  <!-- Status Icon: Sun (Happy/Welcome state) -->
  <g id="icon-sun">
    <path d="M34.883 19.0352C44.9109 19.1848 54.2837 27.0135 54.2333 39.1406C54.1829 49.9512 46.3319 59.246 35.0544 59.2859C24.2706 59.3257 15.8754 50.7989 15.8149 39.2503C15.7545 27.562 24.4823 19.1648 34.883 19.0352ZM18.6268 39.0408C18.7276 48.166 25.48 56.0347 34.9133 56.0247C44.4574 56.0247 51.1695 48.186 51.1594 39.0608C51.1594 30.3444 44.538 21.8076 34.8326 21.9373C26.0142 22.047 18.7175 29.2773 18.6268 39.0408Z" fill="currentColor"/>
    <path d="M58.8088 22.9147C57.4785 22.9446 57.0552 22.3163 57.4886 21.3689C57.6297 21.0597 57.8211 20.7605 58.0429 20.5112C59.7562 18.6363 61.53 16.8112 63.7069 15.5148C64.0394 15.3153 64.3821 15.1059 64.7449 14.9862C65.3295 14.7967 65.9845 14.6471 66.3877 15.3053C66.7505 15.9137 66.5388 16.532 66.1458 17.0705C65.9745 17.2999 65.8031 17.5293 65.5915 17.7088C63.8379 19.1948 62.0943 20.6907 60.3004 22.1268C59.7965 22.5357 59.1414 22.7351 58.8189 22.9047L58.8088 22.9147Z" fill="currentColor"/>
    <path d="M65.7024 39.5794C64.7147 39.5794 63.717 39.6392 62.7293 39.5594C61.7618 39.4896 61.2277 38.991 61.1974 38.3028C61.1672 37.6147 61.661 36.9465 62.5277 36.787C63.6565 36.5775 64.8155 36.4678 65.9644 36.398C67.2242 36.3282 68.4941 36.3482 69.7639 36.3482C70.1973 36.3482 70.6609 36.3482 71.0741 36.4579C72.0819 36.757 72.3037 37.6446 71.5579 38.4225C70.7214 39.2902 69.6027 39.4497 68.5142 39.5495C67.587 39.6392 66.6498 39.5694 65.7125 39.5694L65.7024 39.5794Z" fill="currentColor"/>
    <path d="M5.91811 60.4328C4.78934 60.4727 4.40637 59.984 4.70872 59.1264C4.88005 58.6576 5.14208 58.159 5.49482 57.8399C7.45001 56.0746 9.43542 54.3593 11.4309 52.644C11.7232 52.3946 12.1062 52.1353 12.4488 52.1254C12.9427 52.1254 13.6784 52.1852 13.8799 52.5043C14.0916 52.8434 13.8295 53.5415 13.7086 54.0601C13.6582 54.2596 13.4567 54.4291 13.2853 54.5787C11.2495 56.3339 9.2137 58.0892 7.14766 59.8045C6.73445 60.1436 6.18014 60.2932 5.91811 60.4228V60.4328Z" fill="currentColor"/>
    <path d="M14.525 70.1464C14.7668 69.4782 14.8979 68.8399 15.2002 68.3114C16.4298 66.1872 17.6996 64.0928 18.9796 62.0085C19.2114 61.6295 19.5137 61.2107 19.8765 61.0112C20.2192 60.8217 20.834 60.712 21.0758 60.9115C21.3883 61.1608 21.6705 61.7891 21.5999 62.188C21.479 62.9061 21.1565 63.6241 20.7836 64.2524C19.6145 66.2071 18.3849 68.1219 17.1554 70.0367C16.9437 70.3658 16.6918 70.7248 16.3693 70.9143C15.9762 71.1437 15.4522 71.383 15.0793 71.2833C14.8172 71.2135 14.7064 70.5553 14.525 70.1464Z" fill="currentColor"/>
    <path d="M36.3343 5.84101C36.3343 6.93803 36.3847 8.03505 36.3142 9.1221C36.2638 9.86009 36.1428 10.618 35.8808 11.2962C35.7498 11.6353 35.2559 11.9644 34.8931 12.0043C34.6311 12.0342 34.2078 11.6452 34.0465 11.3361C33.8248 10.8973 33.6636 10.3488 33.6636 9.8601C33.6938 7.27711 33.7845 4.69412 33.8651 2.11114C33.8651 1.9416 33.8954 1.76209 33.9256 1.60252C34.1272 0.515471 34.5706 -0.112823 35.135 0.0168245C35.9715 0.20631 36.2537 0.974225 36.294 1.71222C36.3746 3.08848 36.3142 4.47472 36.3142 5.85098C36.3142 5.85098 36.3242 5.85098 36.3343 5.85098V5.84101Z" fill="currentColor"/>
    <path d="M54.7876 5.55179C54.6163 6.25987 54.576 6.87819 54.324 7.35689C53.1852 9.52102 51.9859 11.6552 50.7966 13.7994C50.6555 14.0487 50.454 14.2482 50.2524 14.4476C49.819 14.8964 49.2143 15.1657 48.781 14.7269C48.4585 14.3978 48.4282 13.7296 48.3174 13.211C48.2871 13.0714 48.398 12.8719 48.4685 12.7223C49.6981 10.4086 50.9276 8.09489 52.1975 5.79114C52.4091 5.4022 52.7518 5.05315 53.1146 4.8138C53.417 4.61434 53.9209 4.40491 54.1628 4.54453C54.4752 4.71407 54.6062 5.23266 54.7876 5.54182V5.55179Z" fill="currentColor"/>
    <path d="M67.2544 57.2115C66.8513 57.4808 66.4885 57.8897 66.1055 57.9296C65.652 57.9695 65.1077 57.77 64.7046 57.5107C62.7394 56.2342 60.7943 54.9078 58.8491 53.5814C58.577 53.3919 58.3352 53.1426 58.1336 52.8733C57.7204 52.3148 57.5894 51.5968 58.0832 51.138C58.4158 50.8289 59.1817 50.6394 59.5647 50.8189C62.175 52.1154 64.5534 53.7908 66.5993 55.945C66.8614 56.2142 66.9722 56.6431 67.2645 57.2115H67.2544Z" fill="currentColor"/>
    <path d="M4.60792 39.6492C3.73111 39.6492 2.84423 39.6691 1.96742 39.6492C1.58444 39.6392 1.141 39.6293 0.84873 39.4198C0.475834 39.1506 0.0827817 38.7117 0.00215558 38.2929C-0.0381575 38.0535 0.495991 37.515 0.84873 37.4252C2.01781 37.126 3.21712 36.9166 4.41644 36.787C5.94833 36.6274 7.49031 36.5775 9.03228 36.4878C9.19353 36.4878 9.36487 36.4579 9.52612 36.4878C10.2014 36.6174 10.8867 36.8568 11.0177 37.6446C11.1588 38.5123 10.4735 38.9311 9.83854 39.0608C8.11516 39.3999 6.37162 39.6093 4.63816 39.8786C4.63816 39.8088 4.618 39.739 4.618 39.6592L4.60792 39.6492Z" fill="currentColor"/>
    <path d="M18.5663 7.18735C18.7074 6.92806 18.909 6.18009 19.171 6.15017C19.6145 6.11028 20.2192 6.39949 20.5518 6.76849C21.0355 7.30703 21.3782 7.99516 21.6906 8.66334C22.5372 10.4784 23.3434 12.3134 24.1295 14.1584C24.2807 14.5174 24.3916 14.9363 24.3815 15.3253C24.3613 16.2926 23.5652 16.7614 22.769 16.2827C22.4465 16.0832 22.1341 15.794 21.9224 15.4748C20.4611 13.2808 19.4331 10.8574 18.7074 8.29435C18.6268 8.02508 18.6369 7.72589 18.5764 7.19733L18.5663 7.18735Z" fill="currentColor"/>
    <path d="M33.4922 70.7947C33.6031 69.2289 33.6837 67.8526 33.7946 66.4764C33.8248 66.1373 33.845 65.7284 34.0264 65.4791C34.2985 65.1001 34.6815 64.6613 35.0846 64.5616C35.7296 64.402 36.042 65.0004 36.2235 65.5788C36.3041 65.8481 36.3444 66.1473 36.3343 66.4265C36.2335 68.9596 36.1328 71.5027 36.0118 74.0359C36.0017 74.3151 35.9312 74.6143 35.8203 74.8736C35.6087 75.3922 35.4273 76.1601 34.7722 75.9706C34.359 75.8509 33.8752 75.2226 33.8047 74.7539C33.593 73.3976 33.583 72.0014 33.5023 70.7947H33.4922Z" fill="currentColor"/>
    <path d="M13.9101 24.7895C13.3861 24.5402 12.9628 24.3906 12.6 24.1513C10.6246 22.8448 8.93149 21.1893 7.49029 19.2745C7.13755 18.7958 6.90575 18.1575 6.80497 17.5592C6.69411 16.8611 7.21818 16.4921 7.87327 16.7314C8.17562 16.8411 8.47796 17.0206 8.72992 17.24C10.5642 18.8158 12.3883 20.3915 14.2125 21.9871C14.5048 22.2464 14.8373 22.5456 14.9583 22.8947C15.0893 23.2936 15.1397 23.8621 14.9583 24.1912C14.787 24.5103 14.2629 24.61 13.9202 24.7995L13.9101 24.7895Z" fill="currentColor"/>
    <path d="M53.4573 71.8019C52.4494 71.8618 51.8145 71.3232 51.3207 70.7548C50.1012 69.3386 48.9825 67.8327 47.8336 66.3567C47.763 66.267 47.7227 66.1572 47.6723 66.0575C47.108 64.9206 47.1483 64.1527 47.7731 63.7139C48.3577 63.305 48.9825 63.4546 49.7384 64.4419C50.847 65.878 51.9153 67.364 52.8929 68.8998C53.3968 69.6976 53.8201 70.6151 53.4674 71.8119L53.4573 71.8019Z" fill="currentColor"/>
  </g>
</svg>
