<svg width="92" height="83" viewBox="0 0 92 83" fill="none" xmlns="http://www.w3.org/2000/svg">
  <!-- Status Icon: Sparkle (Thinking/Processing state) -->
  <g id="icon-sparkle">
    <path d="M43.1844 24.6343C44.0102 22.3074 44.779 19.9467 45.6783 17.6459C46.9299 14.4689 48.2153 13.5671 51.4569 13.5653C54.9039 13.5678 58.2889 14.0559 61.5752 15.0164C64.0235 15.7344 66.5374 16.2287 68.807 17.528C71.7394 19.2134 72.4232 21.2118 70.5656 24.2698C69.6433 25.7805 68.4321 27.1338 67.2461 28.4549C60.9932 35.4261 54.7202 42.3763 48.4271 49.3057C44.2371 53.9227 40.0148 58.5145 35.7924 63.1062C35.2355 63.7041 34.6461 64.2768 33.9925 64.7581C32.452 65.9123 30.9563 65.2306 30.7848 63.3043C30.725 62.7344 30.8591 62.1236 30.9967 61.5414C31.1603 60.8862 31.4218 60.2658 31.6344 59.6279C34.4201 51.2343 37.2181 42.845 39.975 34.4549C41.0515 31.1883 42.0344 27.8748 43.0497 24.5864C43.0864 24.5995 43.1354 24.6169 43.1722 24.6299L43.1844 24.6343ZM35.9979 56.8146C36.209 56.9581 36.4158 57.1138 36.6392 57.2616C37.5427 56.3478 38.5111 55.4844 39.3498 54.5201C42.8942 50.401 46.3175 46.1566 49.9346 42.1045C55.3249 36.048 60.8406 30.1047 66.2836 24.0943C66.9623 23.3476 67.8168 22.6496 67.7895 21.1722C66.9062 20.7078 65.9522 20.0538 64.919 19.7008C63.171 19.1079 61.3805 18.5959 59.562 18.2797C56.8953 17.8272 54.1963 17.5826 51.5152 17.2484C50.1952 17.0817 49.3191 17.6075 48.8471 18.9762C47.8592 21.8765 46.7978 24.7507 45.8056 27.6631C42.7922 36.6206 39.8155 45.5912 36.8143 54.553C36.5585 55.3127 36.2782 56.0636 36.0102 56.8189L35.9979 56.8146Z" fill="currentColor"/>
    <path d="M68.5952 44.6668C70.9945 45.6005 72.3901 47.0697 73.5271 48.7626C75.3406 51.4637 77.0914 54.2248 78.7384 57.0452C80.1023 59.3809 79.5705 61.3458 77.0955 62.6072C73.7789 64.297 70.3989 65.8545 66.9685 67.2433C61.7173 69.3712 56.3912 71.3217 51.0924 73.3505C49.7688 73.8547 48.4942 74.143 47.216 73.2368C46.4372 72.6723 46.1814 72.0329 46.5582 71.1653C46.9437 70.2734 47.3458 69.3736 47.8978 68.5956C52.0012 62.8231 56.1372 57.0759 60.281 51.3453C61.5484 49.6004 62.8 47.8225 64.1849 46.1741C65.4984 44.6102 67.152 44.0311 68.5909 44.6789L68.5952 44.6668ZM52.6179 67.692C52.7541 67.8912 52.8823 68.0739 53.0185 68.2731C56.7321 66.9025 60.4651 65.5937 64.1636 64.1492C67.8952 62.689 71.8127 61.6377 75.3238 58.9333C73.4275 56.0382 71.7596 53.2379 69.8416 50.6369C68 48.1316 67.2622 48.2675 65.3146 50.8409C61.487 55.8746 57.6394 60.8874 53.8118 65.921C53.3788 66.4806 53.0185 67.1071 52.6301 67.6963L52.6179 67.692Z" fill="currentColor"/>
    <path d="M29.5226 28.6605C27.0064 34.5847 24.4779 40.5046 21.9495 46.4245C21.5553 47.3408 21.1569 48.2693 19.9673 48.1627C18.88 48.0786 18.1898 47.381 18.0306 45.9254C17.8123 43.859 17.6395 41.7813 17.602 39.7105C17.4581 32.0329 16.7911 24.4303 15.9886 16.8208C15.8697 15.6401 15.8085 14.4525 15.7473 13.2648C15.6594 11.4916 16.4578 10.2524 18.0437 9.55326C18.5819 9.31906 19.1209 9.04396 19.6692 8.93678C23.0772 8.34938 26.4702 7.68803 29.8912 7.29726C32.5629 6.99719 33.8483 8.19406 33.6631 11.0088C33.4685 13.8889 32.99 16.7916 32.242 19.5987C31.4407 22.6338 30.1898 25.5367 29.1349 28.5092C29.2574 28.5527 29.3799 28.5962 29.4981 28.6518L29.5226 28.6605ZM20.3104 41.5221C20.4538 41.5455 20.5972 41.569 20.7406 41.5924C21.1102 40.9006 21.5778 40.2436 21.8495 39.517C24.1034 33.3213 26.3941 27.1388 28.4967 20.9031C29.3809 18.2953 29.8975 15.557 30.4344 12.8395C30.8588 10.672 30.4229 10.2293 28.3795 10.5466C26.0356 10.8944 23.6947 11.3118 21.3688 11.8032C18.4284 12.4331 18.3304 12.6315 18.5191 15.675C19.0175 23.7527 19.5159 31.8305 20.0309 39.9003C20.0705 40.4493 20.2132 40.9801 20.3104 41.5221Z" fill="currentColor"/>
  </g>
</svg>
