<svg width="76" height="53" viewBox="0 0 76 53" fill="none" xmlns="http://www.w3.org/2000/svg">
  <!-- Status Icon: Coffee (Break/Loading state) -->
  <g id="icon-coffee">
    <path d="M3.27067 28.7308C1.88142 29.0901 0.104116 29.8634 0.0265048 31.5349C-0.159763 32.8706 0.662933 34.0656 1.64084 34.8702C3.65098 36.5573 6.08799 37.5805 8.43963 38.6662C9.02171 38.9084 9.24676 39.5488 9.57273 40.0409C10.3178 41.3844 11.5751 42.2982 12.7471 43.2355C14.633 44.743 16.8605 45.696 19.0336 46.7114C22.3398 48.2111 25.9643 48.7422 29.4413 49.6951C32.4449 50.5231 35.5416 50.8824 38.5917 51.4838C41.8825 52.1399 45.2353 52.4055 48.5571 52.8194C51.1571 52.9678 53.7959 52.9522 56.3648 52.4679C58.9648 51.7884 61.7899 50.9839 63.4973 48.7266C65.4687 48.586 67.4633 48.3985 69.3648 47.8127C70.5522 47.4534 71.7319 46.852 72.5003 45.8444C73.0125 45.1883 73.2376 44.2431 72.8185 43.4855C72.0191 41.9936 70.5522 41.0251 69.1552 40.1659C66.4776 38.6115 63.606 37.4243 60.68 36.4557C62.2012 36.198 63.7301 35.9246 65.1892 35.4013C66.6794 34.878 68.0143 34.0188 69.3492 33.183C71.5068 31.7927 73.5868 30.1134 74.8053 27.7935C75.8841 26.0049 76.3032 23.8022 75.7677 21.7714C75.2943 20.1467 73.711 19.1391 72.1432 18.8267C70.5444 18.4596 68.9224 18.9439 67.4089 19.4203C68.1462 16.9287 69.0543 13.9762 67.5486 11.5939C66.2292 9.75833 64.0872 8.7976 62.1236 7.82906C57.2573 5.64203 52.0884 4.21265 46.9039 3.03321C40.7416 1.68194 34.5016 0.682149 28.2228 0.182256C24.9631 -0.0364476 21.6569 -0.16142 18.4282 0.424392C17.1709 0.68215 15.7351 1.11175 15.1375 2.3771C13.4844 5.86073 12.1417 9.56306 11.7925 13.4372C11.6372 15.429 11.6527 17.4442 11.7381 19.4359C11.9166 22.5447 13.0109 25.5128 14.633 28.1372C10.8533 27.9263 6.9805 27.8248 3.27067 28.7308ZM69.8692 25.9736C69.8459 26.8094 69.2561 27.4811 68.6818 28.0279C66.8734 29.5822 64.5451 30.4492 62.1779 30.582C63.1403 29.0042 63.9474 27.3405 64.7391 25.6768C66.3068 24.8645 68.6662 24.2474 69.8692 25.9736ZM13.3757 20.9591C12.6462 15.3665 13.4223 9.62555 15.4479 4.36886C16.7984 6.01695 18.7309 7.00111 20.6091 7.92279C24.7846 9.92236 29.2318 11.2971 33.71 12.4296C34.3464 12.5859 35.0138 12.7577 35.6658 12.5546C33.6323 11.711 31.4515 11.3205 29.3792 10.5941C26.8879 9.78177 24.381 8.9382 21.9984 7.82906C20.9118 7.33698 19.8563 6.7746 18.8318 6.13411C17.6289 5.32959 16.2008 4.37667 16.1387 2.75202C18.9094 1.26015 22.1536 1.20547 25.227 1.17423C30.4503 1.06488 35.658 1.73661 40.7804 2.72859C46.3374 3.85335 51.8323 5.36865 57.1409 7.36822C59.1123 8.11025 61.0526 8.9382 62.9152 9.93798C63.3111 10.1489 63.7068 10.3754 64.0949 10.6019C65.1038 11.2424 66.1672 11.8985 66.8501 12.9139C67.0597 13.57 66.3379 14.0074 65.8645 14.2886C63.8388 15.2259 61.557 15.2572 59.3684 15.3899C57.4824 15.5462 55.5964 15.265 53.7182 15.3587C54.0209 15.7102 54.4245 15.9679 54.9135 15.9445C57.917 16.1398 60.9672 16.2023 63.9552 15.6868C65.0728 15.5071 66.1283 15.0697 67.1295 14.5386C66.757 18.0925 65.2824 21.3652 63.8698 24.5989C62.3875 28.2544 60.4549 31.8005 57.5988 34.5499C56.0155 35.9793 54.246 37.2056 52.3678 38.221C49.5893 39.7285 46.384 40.1503 43.2717 40.3065C40.1673 40.3221 37.1171 39.6582 34.0903 39.0411C29.5267 38.1273 25.5064 35.6512 21.5637 33.308C17.2175 30.6445 14.2838 25.9502 13.3757 20.9591ZM15.122 28.8402C15.9912 30.0899 17.0157 31.2303 18.1178 32.2848C16.4258 32.3238 14.7417 32.4019 13.0575 32.5738C12.4366 32.6753 11.7226 32.7378 11.3113 33.2767C10.8689 34.1516 11.4199 35.2138 12.196 35.6903C13.6163 36.6354 15.2694 37.104 16.8449 37.7211C18.8007 38.4709 20.8264 38.9786 22.8598 39.4785C24.0783 39.7754 25.2968 40.0644 26.4998 40.4002C28.8359 41.0173 31.1954 41.6421 33.6246 41.7203C31.4903 41.1344 29.3637 40.533 27.2527 39.8925C23.6205 38.7912 19.8641 38.0726 16.356 36.5729C14.8116 35.8856 12.8867 35.5028 11.9942 33.9016C14.276 33.3314 16.6587 33.1049 19.0026 33.0893C20.5548 34.0188 22.0449 35.0654 23.667 35.8934C26.3912 37.3774 29.1309 38.924 32.1344 39.7675C34.4395 40.4158 36.7912 40.8767 39.1506 41.2828C42.7285 41.8921 46.4383 41.6812 49.923 40.6736C50.9553 40.4002 51.8633 39.8144 52.8723 39.4864C53.6018 39.8222 54.2227 40.3534 54.9523 40.7127C55.5964 41.0798 56.3415 41.3531 56.8538 41.9311C57.0556 42.7747 55.837 42.8841 55.2627 43.0715C51.2579 43.7433 47.1756 43.2043 43.1398 43.2199C46.0347 43.6651 48.9606 43.9385 51.8788 44.0401C52.166 44.0323 52.4454 44.0244 52.7326 44.0088C54.1451 43.962 55.5731 43.876 56.877 43.3215C57.8705 42.9075 58.3361 41.4781 57.5522 40.658C56.5588 39.6269 55.1618 39.1349 53.8036 38.8459C54.9833 38.1038 56.1009 37.2759 57.203 36.4245C61.5104 38.3694 66.1206 39.8378 69.9779 42.6576C70.6686 43.2043 71.3594 43.8057 71.7164 44.6337C71.274 45.571 70.2573 45.9772 69.3414 46.2974C67.0752 47.0238 64.6925 47.2191 62.3331 47.3519C60.5714 47.4143 58.8096 47.4222 57.0478 47.3753C52.6395 47.2816 48.2389 46.8754 43.8616 46.3208C37.6449 45.5085 31.467 44.3603 25.3745 42.9075C21.2844 41.9077 17.202 40.783 13.2283 39.3614C11.6838 38.8068 10.1626 38.2132 8.66468 37.5571C6.39842 36.5261 4.10113 35.4013 2.26949 33.6751C1.61755 33.1205 1.34593 32.2926 1.22175 31.4724C3.30951 30.1055 5.83964 29.7775 8.25337 29.4416C10.5351 29.1292 12.848 29.1682 15.122 28.8402Z" fill="currentColor"/>
    <!-- Cup face details -->
    <path d="M61.6424 46.2506C63.8699 45.9928 66.0973 45.5163 68.1618 44.5712C66.8812 44.8134 65.6549 45.2898 64.3588 45.4148C60.517 45.8053 56.652 45.9381 52.8024 45.9147C54.1917 46.313 55.6275 46.5005 57.0711 46.5396C58.6 46.5864 60.1367 46.4615 61.6424 46.2506Z" fill="currentColor"/>
    <path d="M42.1619 16.749C43.3028 17.1239 44.2962 16.2022 45.2353 15.6867C44.9249 17.2801 44.7231 18.9985 45.3284 20.5529C45.6544 21.3886 46.221 22.3025 47.1911 22.4353C48.4019 22.6384 49.4341 21.7089 50.0162 20.7325C51.2347 18.6705 51.5451 16.2491 51.8323 13.9137C55.2705 14.0699 58.7708 14.3433 62.1702 13.6325C63.1869 13.4294 64.3666 12.8436 64.5141 11.6876C64.1959 10.9377 63.5206 10.4769 62.8299 10.0942C62.597 9.9692 62.3642 9.85204 62.1391 9.73488C58.9027 8.17271 55.3481 7.50098 52.0108 6.23562C49.2634 5.26708 46.3064 5.18116 43.4347 4.93903C44.8473 5.70449 46.4694 5.86071 48.0216 6.15752C49.7368 6.44652 51.3356 7.21198 53.012 7.65719C54.8669 8.13366 56.7063 8.64917 58.5302 9.25842C60.323 9.89891 62.1935 10.5472 63.637 11.8516C63.4353 11.9532 63.2257 12.0391 63.0239 12.1094L62.9773 11.9844C61.6967 11.3127 60.2842 10.9534 58.9338 10.4457C56.6365 9.60209 54.2848 8.82882 51.8401 8.55544C45.8174 7.82122 39.9577 5.68887 33.8342 5.931C30.9315 6.03254 28.0909 5.39987 25.2736 4.79843C23.442 4.37665 21.556 4.51724 19.7088 4.75938C20.8963 3.91581 22.3942 3.86894 23.7912 3.75178C27.4778 3.48621 31.1643 3.99392 34.8431 3.908C31.6145 3.13473 28.2617 3.04881 24.9554 2.94727C23.1315 3.06443 21.1757 2.93945 19.4916 3.78302C18.6689 4.32197 19.119 5.55608 19.7632 6.04817C20.5005 6.62617 21.3154 7.0792 22.1614 7.46974C23.0074 7.86028 23.8921 8.18833 24.7536 8.51639C30.2951 10.4613 36.0616 11.7032 41.8437 12.6796C41.3237 13.9527 40.8969 15.7726 42.1619 16.749ZM49.1314 20.3732C48.6502 21.0918 47.4861 21.8651 46.7643 21.0371C45.8019 19.9514 45.6699 18.358 45.8717 16.9755C45.9416 16.1554 46.3374 15.1478 45.5536 14.5385C44.4903 15.0306 43.5744 15.8898 42.387 16.0382C41.541 15.1165 41.8515 13.8121 42.1542 12.742C45.0646 13.2107 47.9983 13.5778 50.9398 13.8121C50.6371 16.0538 50.4198 18.444 49.1314 20.3732Z" fill="currentColor"/>
    <path d="M50.8854 32.8081C51.5296 33.9407 52.4221 34.9248 53.4311 35.7372C52.8645 34.5812 52.2824 33.1127 50.8854 32.8081Z" fill="currentColor"/>
    <path d="M50.4586 36.1902C50.3965 35.1591 50.1559 34.1125 49.5194 33.2767C49.4884 34.3312 49.8765 35.331 50.4586 36.1902Z" fill="currentColor"/>
    <path d="M46.8884 28.6449C48.2001 28.4419 48.7356 27.0437 48.9296 25.8877C47.9051 24.8176 46.1201 24.4427 44.8705 25.3253C44.1565 25.794 44.366 26.7469 44.6066 27.4265C44.9481 28.3325 46.0192 28.6371 46.8884 28.6449Z" fill="currentColor"/>
    <path d="M46.4072 35.042C47.0126 36.198 47.8663 37.229 48.9762 37.932C48.4096 36.7604 47.8042 35.3622 46.4072 35.042Z" fill="currentColor"/>
    <path d="M44.7153 35.1982C45.1965 36.4792 45.8873 37.6508 46.6556 38.7756C46.6634 37.3306 45.7864 36.1667 45.0413 35.0186C44.9637 35.0654 44.7929 35.1591 44.7153 35.1982Z" fill="currentColor"/>
    <path d="M38.8245 28.1607C39.5308 27.5046 40.2526 26.7079 40.3613 25.7003C40.2914 25.2472 40.2449 24.5364 39.6395 24.5599C38.4598 24.677 37.9631 25.9112 37.1326 26.5751C36.4884 25.7706 36.4341 24.763 36.2789 23.7944C35.9219 23.5132 35.4252 23.5523 35.0061 23.4429C34.5016 25.0676 34.7189 27.0359 36.0228 28.2388C36.7834 28.9808 38.0795 28.8793 38.8245 28.1607Z" fill="currentColor"/>
    <path d="M27.3846 24.927C27.8736 25.341 28.5411 25.0051 28.9602 24.6458C29.8061 23.9272 30.753 22.9977 30.6443 21.787C30.4115 20.6779 28.999 20.4514 28.0909 20.7951C27.3303 21.0841 26.5154 21.7089 26.5154 22.615C26.5231 23.4429 26.6706 24.4037 27.3846 24.927Z" fill="currentColor"/>
    <path d="M21.6336 40.6111C24.156 41.0797 26.6473 41.6968 29.1852 42.0717C27.0431 41.3531 24.87 40.7751 22.6736 40.2596C21.2533 39.9237 19.833 39.6191 18.4049 39.3145C15.9524 38.7677 13.3214 38.6115 11.1638 37.1821C11.839 37.807 12.5996 38.3538 13.4766 38.6428C16.1232 39.5722 18.8939 40.0409 21.6336 40.6111Z" fill="currentColor"/>
  </g>
</svg>
