<svg width="87" height="82" viewBox="0 0 87 82" fill="none" xmlns="http://www.w3.org/2000/svg">
  <!-- Status Icon: Crown (Achievement state) -->
  <g id="icon-crown">
    <path d="M17.2647 34.0144C17.2933 31.1763 17.3162 28.8392 17.3409 26.5129C17.3428 26.257 17.3123 26.0066 17.325 25.7489C17.4927 22.9432 18.7541 21.7554 21.389 22.5276C23.9427 23.28 26.3733 24.4974 28.851 25.5292C29.521 25.8064 30.1765 26.1306 31.0577 26.5394C31.2875 25.8456 31.4955 25.2887 31.6565 24.7174C33.0211 19.7347 34.3639 14.7556 35.7285 9.77281C35.9076 9.10965 36.1428 8.44827 36.4411 7.83192C37.347 5.98106 38.9964 5.51746 40.6811 6.67018C42.9291 8.19573 44.5048 10.4332 45.954 12.714C47.4358 15.0561 48.7169 17.5316 50.0884 19.9475C50.4187 20.5258 50.7598 21.1024 51.2723 21.9725C51.8507 21.2318 52.27 20.7397 52.6279 20.2134C53.5426 18.8833 54.3958 17.519 55.3358 16.2069C55.7606 15.614 56.2811 15.0606 56.8665 14.6298C57.8586 13.8979 58.7905 14.0093 59.6372 14.9461C60.0885 15.4487 60.4675 16.0522 60.7616 16.681C61.7919 18.8538 62.7607 21.0591 63.7692 23.2355C64.0273 23.7814 64.3377 24.3075 64.7383 25.0407C65.2786 24.4729 65.6762 24.1178 66.007 23.6961C67.762 21.4594 69.4792 19.1956 71.236 16.9697C72.0729 15.9081 72.9585 14.8717 73.8748 13.8858C74.5091 13.2135 75.2356 12.5592 76.2613 13.0994C77.2743 13.6307 77.5394 14.5532 77.4358 15.6704C77.2214 18.1283 77.0882 20.606 76.8052 23.0531C76.2046 28.2753 75.353 33.4615 74.933 38.698C74.3966 45.4428 74.1799 52.2343 73.8368 59.0025C73.7127 61.4675 73.6337 63.9362 73.5439 66.4067C73.5073 67.3239 73.032 67.9475 72.3237 68.3766C69.4057 70.1181 66.4082 71.7173 63.1384 72.6175C59.8234 73.5141 56.4994 74.4232 53.1213 75.0081C49.3296 75.6507 45.4713 75.96 41.64 76.3648C37.5576 76.8003 33.4609 76.816 29.37 76.3307C27.9377 76.1582 26.5055 75.8523 25.0968 75.4869C23.3251 75.0154 21.848 74.0392 21.0127 72.2339C19.4249 68.854 17.7125 65.5281 16.3343 62.0688C14.0271 56.2421 12.0722 50.2567 9.70182 44.4516C7.85817 39.9365 5.62247 35.609 3.58189 31.1823C3.21563 30.3877 2.85299 29.5482 2.6999 28.6959C2.46938 27.3788 3.38022 26.4937 4.64989 26.76C5.29646 26.8968 5.94296 27.1669 6.51356 27.5163C9.19142 29.148 11.8476 30.85 14.5164 32.4944C15.2748 32.968 16.0765 33.3678 17.2683 34.036L17.2647 34.0144ZM7.73783 31.7234C7.59146 31.8478 7.45592 31.9704 7.31135 32.1055C7.61265 32.7776 7.91215 33.4388 8.21345 34.1108C9.89675 37.8637 11.7679 41.5409 13.2434 45.3839C16.5336 53.9691 19.6359 62.63 23.4879 70.9772C24.2204 72.5663 25.1124 73.2399 26.7651 73.398C33.1806 73.9961 39.5498 73.5797 45.8722 72.6822C50.8127 71.9816 55.7209 70.953 60.6002 69.8847C64.3288 69.0637 67.7526 67.349 71.0789 65.4506C71.8107 65.0287 72.0494 64.4556 71.9487 63.5835C71.8264 62.515 71.8017 61.4303 71.7788 60.3563C71.6238 52.7378 71.6819 45.1283 72.515 37.5563C73.1556 31.772 73.7944 25.9768 74.4242 20.1942C74.4732 19.686 74.3977 19.1653 74.3656 18.304C73.8379 18.7474 73.5741 18.9025 73.4114 19.1296C72.5655 20.2704 71.799 21.487 70.8863 22.5612C68.0469 25.9118 65.6011 29.5525 63.3503 33.3606C62.2728 35.1845 61.1321 36.9634 59.912 38.6666C58.71 40.3445 57.1006 40.3126 55.8298 38.6354C55.3028 37.9454 54.9203 37.1202 54.5432 36.3275C52.1254 31.2414 49.7782 26.1102 47.2899 21.0692C45.5559 17.5469 43.6268 14.1239 41.0327 11.1893C40.5363 10.6165 39.8971 10.1896 39.2201 9.60236C38.9308 10.2061 38.7391 10.5269 38.6306 10.8783C36.7816 16.4973 35.2018 22.1937 34.2089 28.07C33.5367 32.0597 32.9096 36.053 32.2952 40.0552C31.7188 43.8845 29.8994 44.8653 26.5786 42.9184C24.2944 41.5767 22.0427 40.1629 19.6934 38.9653C16.1865 37.1717 12.7683 35.241 9.58325 32.8382C9.01088 32.4114 8.35899 32.1088 7.74143 31.745L7.73783 31.7234ZM20.5799 25.829C20.4027 26.1696 20.2617 26.3264 20.2562 26.494C20.085 29.1447 19.9464 31.79 19.7752 34.4406C19.7206 35.2497 20.2262 35.5433 20.7788 35.8513C22.9186 37.0615 25.0385 38.2862 27.1873 39.4838C27.6911 39.7665 28.242 39.9303 28.8758 40.1914C29.0948 39.4994 29.3081 39.0417 29.3843 38.5623C29.7684 36.3206 30.073 34.0699 30.4824 31.8462C30.6852 30.7236 30.3262 30.0389 29.3582 29.5779C26.9782 28.4633 24.6216 27.2891 22.2324 26.1871C21.7142 25.9512 21.1109 25.9405 20.5799 25.829ZM57.9575 18.2369C57.437 18.6569 57.1588 18.7921 56.9871 19.0319C55.6947 20.7693 54.4384 22.523 53.146 24.2604C52.6562 24.9309 52.8599 25.5525 53.1703 26.2119C54.4116 28.9162 55.6421 31.6223 56.905 34.323C57.1288 34.7969 57.4753 35.2058 57.7298 35.5967C58.0568 35.4867 58.2248 35.4921 58.279 35.4164C59.662 33.2861 61.0575 31.1648 62.3646 28.9804C62.5562 28.6596 62.4337 27.9912 62.2515 27.566C61.4199 25.5823 60.525 23.6203 59.621 21.6709C59.1303 20.5971 58.598 19.5413 57.9701 18.2459L57.9575 18.2369Z" fill="currentColor"/>
    <path d="M39.8912 56.2343C39.4282 53.8559 39.2705 51.4377 39.8137 49.0806C40.1269 47.684 40.5846 46.2856 41.2463 45.0421C42.3673 42.9443 44.6344 42.4445 46.4779 43.9485C47.4456 44.7429 48.2271 45.8905 48.8515 47.0309C50.01 49.1046 50.3719 51.4776 50.5386 53.8164C50.6838 55.9589 50.6899 58.1356 50.4883 60.2692C50.3666 61.6116 49.9306 63.0065 49.3248 64.1851C48.3557 66.0576 46.7208 66.4743 44.8355 65.5884C43.6382 65.0211 42.7482 64.0916 42.0697 62.8935C40.913 60.8307 40.1772 58.6199 39.893 56.2451L39.8912 56.2343ZM43.1335 45.8055C42.8242 46.557 42.347 47.3032 42.1822 48.1195C41.3164 52.6192 41.7838 56.9635 44.1262 60.9955C44.4691 61.5828 44.9475 62.1142 45.4711 62.5159C46.0471 62.9644 46.6902 62.8128 46.9471 62.0812C47.1985 61.3838 47.3849 60.6305 47.4377 59.8773C47.5286 58.6844 47.5491 57.4699 47.5046 56.2662C47.3959 53.4732 47.2294 50.6677 45.9013 48.1112C45.3293 47.0176 44.6578 46.0627 43.1208 45.7965L43.1335 45.8055Z" fill="currentColor"/>
  </g>
</svg>
