<svg width="67" height="56" viewBox="0 0 67 56" fill="none" xmlns="http://www.w3.org/2000/svg">
  <!-- Status Icon: Checkmark (Success state) -->
  <g id="icon-checkmark">
    <path d="M0.38178 31.2534C3.67315 37.546 9.40094 42.0377 13.6754 47.6311C16.518 50.449 18.7835 54.072 22.3955 56C25.8792 54.1991 28.508 51.0846 31.9917 49.2201C38.7241 45.4488 44.4306 40.2156 50.9706 36.19C56.0786 33.0755 61.0798 29.6432 65.2474 25.3634C66.8717 21.5497 66.4016 17.2486 67 13.2231C65.5253 8.87971 63.0675 4.89654 60.4814 1.12522C59.37 -0.760436 56.8267 0.0446947 55.5016 1.20999C50.1798 5.42624 44.2169 8.79502 38.831 12.9477C33.7443 16.8038 29.2347 21.3166 24.2763 25.321C22.0108 22.3972 19.7453 19.4522 17.6081 16.4436C16.6035 15.0876 15.6204 13.5621 13.9961 12.9265C12.6924 12.8206 11.4314 13.3078 10.5337 14.2189C7.30649 17.1851 4.46389 20.5115 1.00154 23.2446C1.27938 23.7955 1.55726 24.3464 1.8351 24.9184C1.19392 26.9312 -0.836455 29.0923 0.38178 31.2534ZM13.0129 16.6978C16.6249 21.4014 19.382 26.9736 23.9984 30.7873C28.7218 28.0541 32.3123 23.8379 36.5227 20.4268C43.2978 14.3461 51.4194 9.96027 58.3228 4.02786C60.2463 7.18475 61.9561 10.4688 63.2384 13.9646C58.1945 16.5495 53.1933 19.1767 48.4486 22.2488C39.3012 28.1813 31.2437 35.5332 22.6092 42.1436C20.0658 38.9867 17.1165 36.2324 14.0175 33.6263C11.1322 29.7703 8.24682 25.893 4.59211 22.715C7.37054 20.681 10.0849 18.5411 13.0129 16.6978Z" fill="currentColor"/>
  </g>
</svg>
