<svg width="34" height="85" viewBox="0 0 34 85" fill="none" xmlns="http://www.w3.org/2000/svg">
  <!-- Status Icon: Music Notes (Music/Fun state) -->
  <g id="icon-music-notes">
    <path d="M32.4136 49.6363C34.0813 46.8369 32.1104 43.8857 31.2873 41.1949C30.6809 39.5891 29.7713 36.9416 27.5405 37.7229C23.0572 39.8495 18.8554 42.7139 15.8666 46.7284C17.9458 53.781 22.7107 59.6618 25.3746 66.4974C23.1222 66.8012 20.4582 66.7578 18.8554 68.6457C16.5813 71.3582 15.715 75.0907 16.2781 78.5627C16.4514 80.8629 17.6209 83.3585 19.8301 84.335C21.3462 84.6822 23.2955 84.8558 24.4434 83.5538C27.4539 80.3855 28.7534 75.8284 28.4935 71.5318C28.3852 66.3888 25.9161 61.7667 23.4687 57.405C26.6958 55.1916 30.5293 53.2168 32.4136 49.6363Z" fill="currentColor"/>
    <path d="M21.0562 23.6099C20.688 26.4092 22.8106 30.2068 26.0593 29.5774C29.3081 28.9915 31.4955 25.9752 32.6218 23.0457C33.1416 21.3748 33.8997 19.2915 32.8384 17.6857C28.2902 12.7598 26.5358 6.07607 24.0234 0C22.5507 0.368904 20.9262 0.477405 19.8649 1.62752C15.8148 5.42506 11.808 9.30941 6.99983 12.1087C5.52706 13.107 3.53455 13.8665 3.1447 15.7978C3.55621 18.0763 4.92064 20.0076 6.06853 21.9607C7.45467 24.3477 8.321 26.9951 9.31729 29.5774C5.28883 30.5974 1.97508 33.6137 0.372361 37.4112C-1.07875 40.8616 1.91021 45.8309 5.89536 45.0497C10.0754 44.0298 12.2196 39.7332 13.7574 36.0658C15.555 30.4889 12.1113 25.1289 10.3136 20.0076C15.2517 16.796 19.6051 12.8032 24.3699 9.33111C25.3445 11.4143 26.3191 13.5193 27.3154 15.6025C23.9367 16.8828 21.1862 19.8557 21.0562 23.6099Z" fill="currentColor"/>
  </g>
</svg>
