<svg width="90" height="93" viewBox="0 0 90 93" fill="none" xmlns="http://www.w3.org/2000/svg">
  <!-- Status Icon: Chat Dots (Listening/Ready state) -->
  <g id="icon-chat-dots">
    <path d="M84.9817 36.7306C85.7591 32.7471 83.6294 28.9864 81.7585 25.6378C78.7729 20.2504 73.0958 17.332 67.7709 14.7716C63.3622 12.8257 59.1759 10.1485 54.3639 9.41278C49.2357 8.3814 43.9821 9.29371 38.9138 10.203C31.7516 11.843 24.4949 14.3277 18.8052 19.1305C14.682 22.613 11.3625 27.5236 11.2443 33.0811C10.4878 40.2339 14.1212 47.1393 19.0347 52.1205C24.5333 57.5748 30.7066 62.5771 38.1198 65.1171C36.6609 71.0535 34.7236 77.8899 37.9943 83.5909C46.0936 80.2247 49.3536 71.5018 54.2155 64.869C63.5849 63.8467 73.1259 59.2323 78.2488 51.0349C81.0969 46.6044 83.9977 41.977 84.9817 36.7306ZM71.4723 52.5146C66.6646 57.7647 59.5748 60.6104 52.5567 61.0236C48.4243 65.4264 45.5176 70.7639 41.4524 75.2111C41.9285 70.7777 43.6788 66.6066 44.2779 62.2062C43.7554 60.2207 41.6005 59.8015 39.9674 59.2058C33.4327 57.323 28.0148 52.9449 22.9989 48.5426C18.391 44.487 14.6218 38.6788 15.2724 32.3149C15.8568 25.116 22.0077 20.0677 28.0675 17.1305C33.3261 14.8222 38.8899 12.3584 44.7636 12.7723C49.3714 12.7942 53.8381 14.2283 58.0715 15.9427C61.9649 18.0404 65.2239 21.1282 69.0334 23.4408C73.8461 26.3386 77.9348 31.1515 78.6415 36.8773C77.8226 42.5897 74.7996 47.8698 71.4723 52.5146Z" fill="currentColor"/>
    <path d="M58.2672 34.7926C56.9742 37.847 57.0538 41.1902 58.0884 44.3148C60.9424 43.2076 64.2563 41.5646 65.1197 38.3423C63.8975 35.7212 60.6431 35.6664 58.2672 34.7926Z" fill="currentColor"/>
    <path d="M47.2107 33.6491C43.282 33.6509 43.3656 41.8988 47.254 41.3589C49.3647 40.369 51.5844 38.7755 52.3647 36.4537C52.0065 34.2486 49.0231 33.8711 47.2107 33.6491Z" fill="currentColor"/>
    <path d="M30.9919 29.8305C29.7372 32.4471 30.4226 35.399 31.0198 38.0899C31.8776 38.1352 33.5802 38.2751 34.4315 38.345C36.602 36.7383 38.6284 34.8822 39.7026 32.3491C37.5957 30.1764 33.8557 27.4078 30.9919 29.8305Z" fill="currentColor"/>
  </g>
</svg>
