<svg width="57" height="66" viewBox="0 0 57 66" fill="none" xmlns="http://www.w3.org/2000/svg">
  <!-- Status Icon: ZZZ (Sleeping/Idle state) -->
  <g id="icon-zzz">
    <path d="M52.2283 38.0242C55.3688 34.0505 55.164 28.8208 55.2551 24.0249C53.9124 21.4215 50.3166 22.0609 47.9271 21.4443C49.7705 20.6907 52.6151 20.9647 53.4799 18.7495C55.0729 14.6159 55.824 10.1626 56.3929 5.75502C53.3662 3.95086 49.907 2.90035 46.3568 3.03737C41.555 3.06021 37.345 0.205536 32.6114 0C29.2661 0.959169 26.6262 3.51695 24.0091 5.70934C24.1684 7.92457 23.8499 10.1855 24.396 12.3322C26.4442 14.3875 29.7895 14.1363 32.4749 14.6616C28.6972 16.2145 25.0332 17.973 21.2555 19.5031C19.3211 20.1426 18.957 22.3806 18.2971 24.0477C17.6826 26.1716 16.5219 28.9578 18.3653 30.8304C29.5164 33.708 40.622 37.4761 52.2283 38.0242ZM42.1923 20.7363C45.2191 18.8865 48.4734 17.4021 51.8642 16.4201C49.5885 19.3433 45.8335 20.8048 42.1923 20.7363ZM28.8564 3.92803C29.0385 5.43529 29.2661 6.9654 29.5165 8.44983C28.1965 8.51834 26.9221 8.56401 25.6477 8.60969C26.0573 6.66851 27.4682 5.27543 28.8564 3.92803ZM24.7601 22.1066C29.6757 19.2062 35.0238 17.128 39.9166 14.1592C41.2138 13.474 42.0786 12.2408 42.3289 10.7792C38.9153 9.34048 35.0464 8.8609 32.1563 6.37163C32.3383 5.59515 32.748 4.01938 32.9301 3.24291C37.4815 3.92803 42.0329 4.75017 46.6071 5.50381C48.8146 5.84637 50.7036 7.1481 52.5697 8.3128C52.4559 9.93425 52.3876 11.5785 52.3421 13.2C46.9941 15.6436 41.4413 17.6761 36.5712 20.9647C37.436 21.8554 38.0959 23.1343 39.3931 23.5225C43.6715 24.6644 48.0864 25.3495 52.4786 25.8519C52.3648 27.7017 52.2283 29.5516 52.0918 31.3785C46.7893 30.6021 41.8054 28.501 36.5712 27.4505C32.6114 26.6284 28.6516 25.8291 24.7145 25.0298C24.7145 24.0477 24.7146 23.0886 24.7601 22.1066ZM21.574 20.1426C21.6878 22.472 21.6424 24.8014 21.6879 27.1308C21.0052 27.5419 20.3452 27.9529 19.6852 28.3868C20.2314 25.6235 20.7092 22.8374 21.574 20.1426Z" fill="currentColor"/>
    <path d="M9.76301 53.1426C8.35205 54.8097 6.94104 56.4997 5.30251 57.9613C4.48324 59.6741 3.45908 61.3412 3.23151 63.2367C3.70942 66.3882 7.46442 65.8401 9.80843 66C14.0413 65.7488 18.3425 65.9772 22.5071 65.2921C25.3745 62.209 29.0156 58.8748 28.8336 54.2388C28.6743 52.6402 29.084 50.4706 27.6047 49.4201C26.1483 49.5343 24.7373 49.9225 23.3491 50.2194C24.7373 47.3647 25.7614 44.3502 27.491 41.6782C28.4013 40.1709 29.6301 38.3896 28.8564 36.5626C28.0598 35.3979 26.6034 34.9184 25.2834 34.964C18.7293 35.0325 11.9704 34.8727 5.73491 37.1107C3.43641 38.8235 1.59302 41.1986 0 43.5737C0.318603 46.9308 0.864748 50.6761 3.09497 53.3709C5.30244 53.508 7.53279 53.2796 9.76301 53.1426ZM18.1149 36.8367C20.6182 37.5218 22.9849 38.6408 25.42 39.5543C23.4856 43.7792 21.8472 48.164 19.1163 51.9779C19.5714 52.7543 20.0721 53.5308 20.55 54.3073C22.3023 53.8734 24.0091 53.4166 25.7842 53.0055C25.2152 54.6727 25.7841 57.3903 23.5994 57.8927C19.1162 57.9156 14.6331 57.6872 10.1498 57.7786C13.04 53.0284 16.8178 48.8263 18.9797 43.6879C16.2488 43.5052 13.5862 43.9619 10.9919 44.6927C9.69469 44.8983 8.19265 45.6519 7.1003 44.6014C6.07621 43.2311 6.00802 41.4498 5.62115 39.8284C9.60369 38.2526 13.8138 37.1564 18.1149 36.8367ZM2.95843 41.5184C3.55013 43.4595 4.18732 45.3779 4.93832 47.2505C4.59695 48.2782 4.25559 49.3059 3.93698 50.3336C3.23151 48.0955 2.52616 45.8803 1.79792 43.6651C2.09377 43.117 2.66259 42.0436 2.95843 41.5184Z" fill="currentColor"/>
  </g>
</svg>
